<?xml version="1.0" encoding="utf-8"?>
<!-- Generator: Adobe Illustrator 23.0.1, SVG Export Plug-In . SVG Version: 6.00 Build 0)  -->
<svg version="1.1" id="Capa_1" xmlns="http://www.w3.org/2000/svg" xmlns:xlink="http://www.w3.org/1999/xlink" x="0px" y="0px"
	 viewBox="0 0 242.29 253.14" style="enable-background:new 0 0 242.29 253.14;" xml:space="preserve">
<style type="text/css">
	.st0{fill:#7B868C;}
</style>
<g>
	<g>
		<g>
			<g>
				<path class="st0" d="M119.11,39.19v10.26c0,0,1.81-0.48,4.15-0.01h0V39.19C121.06,38.45,119.11,39.19,119.11,39.19z"/>
				<path class="st0" d="M76.17,41.9c0.06,0.64,0.46,1.2,1.05,1.47c4.47,2.07,9.04,3.1,13.55,3.1c6.13,0,12.16-1.9,17.7-5.67
					c7.37-5.02,17.45-5.37,25.2-1.04c-1.17,1.12-3.3,2.52-6.65,2.52h-1.57v3.65h1.57c7.37,0,10.59-5.11,10.93-5.69c0,0,0,0,0,0
					c0.01-0.02,0.02-0.04,0.03-0.05l0,0c0.15-0.27,0.24-0.57,0.24-0.89V17.6c0-0.6-0.3-1.17-0.8-1.51c-9.12-6.22-21.87-6.22-31,0
					c-8.5,5.79-18.32,6.6-27.66,2.28c-0.83-0.38-1.8-0.1-2.3,0.67c-0.49,0.76-0.35,1.77,0.34,2.37l11.84,10.23L76.9,40.25
					C76.38,40.64,76.1,41.26,76.17,41.9z M92.63,33.22c0.45-0.33,0.72-0.84,0.74-1.4c0.02-0.55-0.21-1.09-0.63-1.45l-6.96-6.01
					c7.82,1.3,15.65-0.47,22.68-5.25c7.66-5.22,18.25-5.39,26.09-0.52v17.52c-8.8-4.47-19.94-3.91-28.15,1.69
					c-7.61,5.18-16.28,6.37-24.72,3.47L92.63,33.22z"/>
				<polygon class="st0" points="119.1,30.22 123.25,30.22 123.25,26.28 127.2,26.28 127.2,22.13 123.25,22.13 123.25,18.18 
					119.1,18.18 119.1,22.13 115.16,22.13 115.16,26.28 119.1,26.28 				"/>
				<path class="st0" d="M209.79,180.3c1.31-1.55,2.69-3.12,4.02-4.65c5.45-6.23,11.09-12.67,14.8-20.55
					c3.19-6.78,4.41-13.8,3.53-20.3c-1.55-11.46-9.04-20.86-18.97-25.06c1.72-2.81,2.46-6.11,2.06-9.4c0,0-0.01-0.08-0.01-0.08
					c-0.09-0.76-0.61-1.39-1.33-1.64c-0.72-0.25-1.52-0.06-2.06,0.48c-1.02,1.03-2.32,1.75-3.74,2.07
					c-1.45,0.33-2.96,0.24-4.36-0.27l-0.28-0.11c-4.34-1.65-8.89-2.49-13.54-2.49c-1.88,0-3.73,0.14-5.55,0.41
					c0-0.09,0.01-0.18,0.01-0.28c0-1.38-0.22-2.74-0.66-4.06c-0.19-0.57-0.62-1.02-1.18-1.23c-0.56-0.21-1.18-0.16-1.7,0.13
					c-0.8,0.46-1.7,0.7-2.63,0.7c-0.19,0-0.38-0.01-0.62-0.03c-1.1-0.11-2.06-0.16-2.94-0.16c-1.4,0-2.81,0.1-4.2,0.29
					c-1.37,0.19-2.72,0.48-4.05,0.86c-1.31,0.37-2.59,0.84-3.84,1.39c-1.23,0.54-2.43,1.17-3.58,1.88c-1.15,0.7-2.24,1.48-3.29,2.33
					c-1.04,0.85-2.03,1.76-2.95,2.74c-0.59,0.62-1.17,1.26-1.7,1.93c-0.53,0.66-1,1.37-1.46,2.08c-0.95,1.45-1.79,2.96-2.75,4.4
					c-0.1,0.15-0.2,0.3-0.31,0.45c-0.05,0.08-0.11,0.16-0.16,0.23c-0.03,0.04-0.15,0.16-0.15,0.21c-0.01,0.01-0.02,0.02-0.02,0.03
					c-0.02,0.03-0.05,0.06-0.07,0.09c-0.29,0.39-0.58,0.77-0.88,1.14c-0.33,0.4-0.66,0.8-1.01,1.19c-0.52,0.59-1.08,1.15-1.64,1.69
					c-0.22,0.21-0.44,0.41-0.66,0.61c-0.39,0.36-0.8,0.72-1.21,1.06c-0.12,0.1-0.23,0.2-0.35,0.29l-6.06-4.18l-0.96-5.81
					c0.41-0.64,0.79-1.28,1.13-1.92l0.22-0.36c0.18-0.35,0.34-0.72,0.5-1.08l0.12-0.3c0.14-0.31,0.27-0.61,0.39-0.92
					c0.05-0.12,0.11-0.24,0.16-0.37c0.05-0.14,0.1-0.28,0.15-0.43l1.71-0.37l1.36-9.89l0,0c0-0.01,0-0.01,0-0.02l-1.84-0.44
					c-0.04-0.32-0.06-0.63-0.12-0.95c-0.07-0.41-0.13-0.82-0.23-1.23c-0.29-1.19-0.72-2.32-1.27-3.39
					c-0.03-0.08-0.05-0.15-0.08-0.22c-1.5-2.84-3.9-5.13-7.15-6.23c-0.08-0.03-0.16-0.05-0.24-0.08c0.04-0.09,0.08-0.19,0.12-0.28
					c0.09-0.22,0.18-0.43,0.27-0.65c1.13-2.58,3.21-4.75,5.72-6.04c0.42,1.06,0.63,1.81,0.64,1.83c0.36,0.94,1.09,1.28,1.89,1.21
					c0.48-0.04,0.98-0.24,1.43-0.53c0.72-0.47,1.26-1.16,1.72-1.89c2.35-3.68,2.67-8.45,0.94-12.45c-1.43-3.28-4.27-5.36-7.61-5.56
					c-0.9-0.05-2.08,0.1-3.34,0.58c-1.4-3.23-4.98-5.5-8.72-5.5c-3.74,0-7.33,2.27-8.72,5.5c-1.25-0.48-2.44-0.64-3.34-0.58
					c-3.34,0.19-6.18,2.27-7.61,5.56c-1.74,3.99-1.41,8.77,0.94,12.45c0.46,0.72,1.01,1.41,1.72,1.89c0.45,0.3,0.95,0.49,1.43,0.53
					c0.79,0.07,1.53-0.27,1.89-1.21c0.01-0.01,0.22-0.77,0.64-1.83c2.51,1.29,4.59,3.46,5.72,6.04c0.09,0.21,0.18,0.43,0.27,0.65
					c0.04,0.09,0.08,0.19,0.12,0.28c-0.08,0.03-0.16,0.05-0.24,0.08c-3.25,1.11-5.65,3.39-7.15,6.23c-0.03,0.08-0.05,0.15-0.08,0.22
					c-0.54,1.07-0.98,2.2-1.27,3.39c-0.1,0.41-0.16,0.82-0.23,1.23c-0.06,0.32-0.08,0.63-0.12,0.95l-1.84,0.44c0,0.01,0,0.01,0,0.02
					l0,0l1.36,9.89l1.71,0.37c0.05,0.14,0.09,0.28,0.15,0.43c0.05,0.12,0.11,0.24,0.16,0.37c0.13,0.31,0.25,0.62,0.39,0.92l0.12,0.3
					c0.17,0.36,0.32,0.73,0.5,1.08l0.22,0.36c0.35,0.65,0.74,1.3,1.15,1.95l-0.96,5.78l-6.09,4.2c-1.18-0.96-2.29-1.99-3.33-3.1
					c-0.18-0.19-0.36-0.39-0.54-0.59c-0.68-0.76-1.3-1.54-1.9-2.34c-0.03-0.04-0.06-0.08-0.09-0.12c0-0.05-0.12-0.17-0.15-0.21
					c-0.06-0.08-0.11-0.16-0.16-0.23c-0.1-0.15-0.21-0.3-0.31-0.45c-0.96-1.44-1.8-2.95-2.75-4.4c-0.46-0.71-0.93-1.42-1.46-2.08
					c-0.54-0.67-1.11-1.3-1.7-1.93c-0.92-0.98-1.91-1.89-2.95-2.74c-1.04-0.85-2.14-1.63-3.29-2.33c-1.15-0.71-2.35-1.33-3.58-1.88
					c-1.25-0.55-2.53-1.01-3.84-1.39c-1.33-0.38-2.68-0.67-4.05-0.86c-1.39-0.2-2.79-0.29-4.2-0.29c-0.88,0-1.84,0.05-2.94,0.16
					c-0.24,0.02-0.43,0.03-0.62,0.03c-0.92,0-1.83-0.24-2.63-0.7c-0.52-0.3-1.14-0.35-1.7-0.13c-0.56,0.21-0.99,0.66-1.18,1.23
					C58.22,95.72,58,97.08,58,98.46c0,0.13,0.01,0.26,0.01,0.39c-2.06-0.34-4.16-0.52-6.29-0.52c-4.64,0-9.2,0.84-13.54,2.49
					l-0.28,0.11c-1.4,0.51-2.91,0.6-4.36,0.27c-1.42-0.33-2.72-1.05-3.74-2.07c-0.54-0.54-1.34-0.72-2.06-0.48
					c-0.72,0.25-1.24,0.89-1.33,1.64c0,0-0.01,0.08-0.01,0.08c-0.4,3.29,0.34,6.58,2.06,9.4c-9.93,4.2-17.42,13.59-18.97,25.06
					c-0.88,6.5,0.34,13.52,3.53,20.3c3.7,7.88,9.34,14.32,14.8,20.55c1.33,1.52,2.71,3.1,4.02,4.65c0.44,0.52,0.9,1.06,1.37,1.6
					c3.39,3.94,7.24,8.4,7.24,12.66c0,4.6-2.74,7.34-7.34,7.34c-0.97,0-1.92-0.16-2.82-0.49c-0.36-0.13-0.74-0.19-1.11-0.22l0-0.01
					c0,0-3.81-0.46-4.87,3.04c-0.36,0-0.72,0.05-1.07,0.15c-1.87,0.52-3.09,2.31-2.89,4.24l0.02,0.21
					c1.33,11.45,11.21,20.42,22.49,20.42l0.31,0c5.25-0.08,10.23-1.89,14.19-4.98c0.04,0.04,0.08,0.09,0.12,0.13
					c0.77,0.78,1.8,1.18,2.83,1.18c0.81,0,1.61-0.24,2.31-0.73c3.16-2.23,5.71-5.14,7.51-8.45l0.04,0.02
					c0.15-0.27,0.29-0.55,0.42-0.82c0.13,0.23,0.26,0.46,0.4,0.69c0.27,0.45,0.55,0.9,0.83,1.35
					c10.09,15.68,28.85,25.43,48.97,25.43c20.12,0,38.89-9.74,48.97-25.43c0.29-0.44,0.56-0.89,0.83-1.35
					c0.14-0.23,0.27-0.46,0.4-0.7c0.14,0.28,0.27,0.55,0.42,0.82l0.04-0.02c1.81,3.31,4.35,6.21,7.51,8.45
					c0.7,0.49,1.51,0.73,2.31,0.73c1.04,0,2.06-0.4,2.83-1.18c0.04-0.04,0.08-0.09,0.12-0.13c3.95,3.09,8.93,4.9,14.19,4.98l0.31,0
					c11.28,0,21.16-8.97,22.49-20.42l0.02-0.21c0.2-1.93-1.02-3.72-2.89-4.24c-0.36-0.1-0.72-0.15-1.07-0.15
					c-1.06-3.49-4.87-3.04-4.87-3.04l0,0.01c-0.37,0.02-0.74,0.09-1.11,0.22c-0.9,0.33-1.85,0.49-2.82,0.49
					c-4.6,0-7.34-2.74-7.34-7.34c0-4.27,3.85-8.73,7.24-12.66C208.88,181.36,209.35,180.83,209.79,180.3z M189.9,102.31
					c4.16,0,8.24,0.75,12.13,2.23l0.31,0.12c2.14,0.78,4.44,0.92,6.64,0.41c0.73-0.17,1.44-0.41,2.12-0.71
					c-0.31,1.42-0.91,2.78-1.78,3.99c0,0-5.06-0.97-7.81-0.97c-10.25,0-19.26,5.44-24.29,13.58c-0.47-1.75-2.22-3.05-4.3-3.05
					h-11.66C167.52,108.22,178.25,102.31,189.9,102.31z M194.03,151.27c0.1,0.32,0.21,0.63,0.34,0.94c0,0,2.77,7.64,11.38,7.4
					c0.14,0,0.27,0,0.41-0.01c0.07,0,0.02,0,0.08-0.02c0,0,0,0,0,0c-8.62,8.79-20.66,13.5-28.89,22.66v-31.57
					c0.36-0.34,0.63-0.6,0.87-0.84c2.34-2.41,4.46-5.11,6.87-7.49c3.6-3.55,7.69-6.63,12.87-7.32c2.06-0.27,4.26-0.3,6.08,0.71
					c1.1,0.61,1.86,1.49,2.36,2.51c0,0,1.72,3.54-1.12,6.24c-0.16,0.15-0.34,0.28-0.52,0.4c-0.81,0.55-1.75,0.92-2.73,1.01
					c-0.62,0.06-1.34,0.02-1.92-0.2c-0.73-0.28-1.49-0.4-2.27-0.31c-1.17,0.13-2.33,0.71-3.04,1.66
					C194.8,147.04,193.24,148.86,194.03,151.27z M135.26,96.15l-0.38,3.5l-0.06,0.01h-0.02v0l-1.92,0.4l-1.85,0.38v-5.3
					c0.79,0.19,1.58,0.37,2.36,0.56C134.03,95.85,134.66,96,135.26,96.15z M121.16,106.53l0.03-0.01l0.03,0.01l10.1-2.17
					c0,0,0,0.01,0,0.01c-0.39,0.77-0.84,1.56-1.35,2.32c-0.34,0.51-0.71,1.02-1.11,1.5c-1.95,2.38-4.54,4.23-7.67,4.25
					c-3.13-0.02-5.72-1.87-7.67-4.25c-0.4-0.48-0.77-0.98-1.11-1.5c-0.51-0.76-0.96-1.55-1.35-2.32c0,0,0-0.01,0-0.01L121.16,106.53
					z M115.21,101.24v-7.01c1.54-0.37,2.94-0.7,4.04-0.96v8.8L115.21,101.24z M123.12,102.07v-8.8c1.1,0.26,2.5,0.59,4.04,0.96v7.01
					L123.12,102.07z M109.96,70.06c0.78-1.15,1.75-2.21,2.92-2.81c0,0-3.65,0.09-7.62,3.75c-1.05-2.41-1.05-5.24,0-7.65
					c0.81-1.88,2.31-3.01,4.11-3.12c1.24-0.07,2.63,0.28,4.03,1.02c3.03,1.6,5.3,4.55,6.06,7.9c0,0,0.78-4.41-2.58-8.98
					c-0.33-0.44-0.67-0.84-1.03-1.2c0.61-2.18,2.97-3.79,5.34-3.79s4.74,1.61,5.34,3.79c-0.36,0.36-0.7,0.75-1.03,1.2
					c-3.37,4.57-2.58,8.98-2.58,8.98c0.76-3.34,3.03-6.29,6.06-7.9c1.4-0.74,2.79-1.09,4.03-1.02c1.8,0.11,3.3,1.24,4.11,3.12
					c1.05,2.41,1.04,5.24,0,7.65c-3.97-3.66-7.62-3.75-7.62-3.75c1.17,0.61,2.14,1.66,2.92,2.81c-3.3,1.71-6.03,4.57-7.51,7.97
					c-0.11,0.25-0.21,0.5-0.31,0.74c-0.07,0.18-0.14,0.34-0.21,0.51c-1.11-0.46-2.11-1.08-3.19-1.65c0,0-0.01,0-0.01,0
					c0,0-0.01,0-0.01,0c-1.08,0.57-2.08,1.19-3.19,1.65c-0.07-0.17-0.14-0.34-0.21-0.51c-0.1-0.25-0.2-0.5-0.31-0.74
					C115.99,74.63,113.26,71.77,109.96,70.06z M115.8,84.38c0.89-0.31,1.85-0.57,2.75-0.92c0.94-0.36,1.75-0.9,2.63-1.38
					c0.89,0.48,1.7,1.02,2.63,1.38c0.9,0.35,1.86,0.61,2.75,0.92c3.27,1.15,5.38,3.93,6.28,7.19c-10.63-2.62-11.37-2.79-11.63-2.8v0
					c0,0,0,0-0.01,0c-0.01,0-0.03,0-0.05,0c0,0,0,0-0.01,0v0c-0.26,0.01-1.01,0.19-11.63,2.8C110.42,88.31,112.53,85.53,115.8,84.38
					z M107.57,99.66L107.57,99.66l-0.02,0l-0.06-0.01l-0.38-3.5c0.61-0.14,1.23-0.29,1.86-0.44c0.78-0.18,1.57-0.37,2.36-0.56v5.3
					l-1.85-0.38L107.57,99.66z M111.99,116.54l0.6-3.41c0.09,0.07,0.18,0.15,0.27,0.22c2.3,2.08,5.09,3.53,8.32,3.54
					c0,0,0.01,0,0.01,0c0,0,0.01,0,0.01,0c3.23-0.01,6.02-1.46,8.32-3.54c0,0,0.11-0.11,0.28-0.3l0.61,3.49l6.62,4.58
					c-0.33,0.2-0.65,0.4-0.99,0.59c-2.81,1.63-5.86,2.84-9.03,3.58c-1.92,0.45-3.87,0.84-5.85,0.82c-1.69-0.02-3.41-0.31-5.05-0.65
					c-3.26-0.69-6.41-1.86-9.32-3.48c-0.48-0.27-0.96-0.55-1.43-0.85L111.99,116.54z M32.64,105.07c2.2,0.51,4.49,0.37,6.64-0.41
					l0.31-0.12c3.89-1.48,7.97-2.23,12.13-2.23c11.66,0,22.39,5.91,28.64,15.6H68.7c-2.09,0-3.83,1.3-4.3,3.04
					c-5.03-8.14-14.04-13.58-24.29-13.58c-2.75,0-7.81,0.97-7.81,0.97c-0.87-1.21-1.47-2.57-1.78-3.99
					C31.2,104.66,31.91,104.9,32.64,105.07z M69.18,206.08c-0.03,0.32-0.06,0.64-0.1,0.96c-0.01,0.07-0.02,0.14-0.03,0.21
					c-0.05,0.34-0.1,0.67-0.16,1.01c-0.01,0.03-0.01,0.06-0.02,0.09c-0.29,1.54-0.75,3.01-1.36,4.41c-0.03,0.06-0.06,0.12-0.08,0.18
					c-0.11,0.25-0.23,0.51-0.35,0.76c-0.09,0.18-0.18,0.35-0.27,0.52c-1.55,2.94-3.78,5.47-6.47,7.37
					c2.49-3.46,3.98-7.72,3.98-12.34c0-2.03-0.29-4-0.82-5.86l-0.02-0.06c-0.36,4.45-1.71,8.63-3.83,12.3l-0.03,0.05
					c-3.24,5.73-9.43,9.46-16.48,9.57c-0.08,0-0.17,0-0.25,0c-9.1,0-17.43-7.46-18.53-16.89l-0.01-0.08l-0.02-0.06
					c0.04,0.04,0.07,0.08,0.1,0.13c2.5,3.83,6.82,6.37,11.73,6.37c7.45,0,13.53-5.81,13.98-13.14c-1.06,2.86-3.33,5.46-6.15,7.06
					c0.01,0-0.06,0.04-0.17,0.1c-0.79,0.43-1.61,0.78-2.46,1.05c-3.62,1.23-10.1,2.12-13.84-5.09c0.3,0.08,0.59,0.23,0.88,0.34
					c0.63,0.24,1.23,0.5,1.9,0.64c0.7,0.15,1.43,0.22,2.15,0.23c0.65,0.01,1.3-0.03,1.95-0.09c0.33-0.03,0.66-0.06,0.98-0.1
					c0.24-0.03,0.47-0.09,0.7-0.14c0.98-0.22,1.94-0.56,2.84-1.03c0.85-0.45,1.64-1.02,2.32-1.69c0.69-0.67,1.27-1.44,1.74-2.27
					c0.49-0.87,0.85-1.82,1.09-2.79c0.26-1.05,0.38-2.14,0.38-3.23c0-6.46-5.66-12.23-9.55-16.84c-6.52-7.73-13.9-15.06-18.26-24.32
					c-2.62-5.57-4.02-11.92-3.19-18.07c1.82-13.44,12.87-23.98,26.67-23.98c9.18,0,17.18,5.04,21.4,12.51
					c0.39,0.76,2.75,5.52,2.76,9.23v11.18c-0.01-0.01-0.02-0.02-0.03-0.03c-2.91-3.24-5.64-6.46-9.22-9
					c-5.32-3.78-13.14-6.53-19.28-3.09c-5.29,2.96-6.85,9.81-3.45,14.8c0,0,3.37,5.25,10.55,3.38c0,0-2.22,7.11-10.66,4.01
					c-0.62-0.23-1.21-0.54-1.77-0.91c-1.04-0.68-1.97-1.55-2.8-2.47c-0.43-0.48-0.83-0.99-1.19-1.52c-0.51-0.74-0.95-1.53-1.32-2.35
					c-0.46-1.01-0.8-2.06-1.03-3.14c-0.53-3.26-0.19-6.59,1.33-9.65c2.22-4.46,6.71-8.11,11.5-9.5c5.02-1.45,11.5-0.66,16.06,1.93
					c0.69,0.39,1.35,0.84,2,1.31c0.57,0.41,0.97,0.71,1.6,1.33c-2.58-5.47-9.37-8.38-15.14-8.65c-6.53-0.31-13.05,2.82-17.1,7.92
					c-3.8,4.78-5.17,11.04-4.11,17.02c1.16,6.53,6.39,12.01,10.52,16.95c7.38,8.83,14.92,17.52,20.44,27.69
					c2.18,4.01,3.08,8.02,3.08,12.65c0,8.99-7.08,16.29-15.91,16.69l-0.05,0c0.95,0.17,1.93,0.25,2.93,0.25
					c2.23,0,4.45-0.43,6.5-1.28c3.63-1.5,6.69-4.3,8.55-7.75c7.53-14.01-4.36-28.23-12.66-38.53c-0.51-0.63-3.15-3.68-4.29-5.03
					l9.63,6.96c1.95,1.43,3.89,2.86,5.82,4.42c2.82,2.28,5.46,4.79,7.74,7.62C66.42,191.21,69.77,198.56,69.18,206.08z
					 M35.38,159.59c0.06,0.01,0.01,0.01,0.08,0.02c0.14,0.01,0.27,0.01,0.41,0.01c8.61,0.24,11.38-7.4,11.38-7.4
					c0.13-0.31,0.24-0.62,0.34-0.94c0.79-2.41-0.76-4.23-0.76-4.23c-0.71-0.95-1.87-1.53-3.04-1.66c-0.78-0.09-1.54,0.04-2.27,0.31
					c-0.59,0.22-1.3,0.26-1.92,0.2c-0.98-0.09-1.92-0.46-2.73-1.01c-0.18-0.12-0.36-0.25-0.52-0.4c-2.84-2.7-1.12-6.24-1.12-6.24
					c0.5-1.02,1.26-1.9,2.36-2.51c1.82-1.01,4.02-0.98,6.08-0.71c5.18,0.68,9.27,3.77,12.87,7.32c2.41,2.38,4.53,5.08,6.87,7.49
					c0.23,0.24,0.51,0.5,0.87,0.84v31.57C56.04,173.09,43.99,168.38,35.38,159.59L35.38,159.59z M168.46,206.22
					c0,0.07,0.01,0.13,0.02,0.2c0.1,1.21,0.28,2.4,0.54,3.56c0,0,0,0.01,0,0.01c-0.69,1.51-1.45,2.99-2.31,4.41
					c-0.25,0.42-0.51,0.83-0.77,1.24c-9.01,14.01-25.85,23.44-45.14,23.44s-36.13-9.43-45.14-23.44c-0.26-0.41-0.52-0.82-0.77-1.24
					c-0.85-1.43-1.62-2.9-2.31-4.42c0,0,0-0.01,0-0.01c0.26-1.17,0.45-2.36,0.54-3.56c0.01-0.07,0.02-0.13,0.02-0.2
					c0.43-5.91-1.1-12.17-4.45-17.9c-0.01-0.01-0.01-0.02-0.02-0.03V121.9h18.64c-2.36-3.98,0,0-2.36-3.98H85
					c0.05,0.08,0.09,0.14,0.13,0.22c-4.99-9.11-13.35-15.63-23.05-18.37c-0.06-0.43-0.1-0.86-0.1-1.3c0-0.24,0.01-0.49,0.03-0.73
					c1.02,0.24,2.11,0.31,3.14,0.2c0.98-0.1,1.82-0.14,2.57-0.14c0.21,0,0.43,0,0.64,0.01c1.41,0.03,2.81,0.18,4.19,0.44
					c1.35,0.26,2.69,0.62,3.98,1.08c1.28,0.46,2.52,1.02,3.72,1.68c1.18,0.65,2.32,1.39,3.39,2.21c1.07,0.82,2.07,1.72,3,2.7
					c0.97,1.02,1.86,2.12,2.66,3.28c0.96,1.4,1.81,2.88,2.76,4.29c0.94,1.39,1.97,2.73,3.09,3.98c0.78,0.88,1.6,1.7,2.45,2.49
					c0.42,0.39,0.84,0.77,1.27,1.13c0.04,0.04,0.09,0.07,0.13,0.11c0.41,0.35,0.83,0.69,1.26,1.02c0.06,0.05,0.12,0.09,0.18,0.14
					c0.42,0.32,0.85,0.64,1.28,0.94c0.06,0.04,0.12,0.08,0.18,0.12c0.44,0.31,0.88,0.61,1.33,0.89c0.03,0.02,0.06,0.04,0.1,0.06
					c1.88,1.19,3.85,2.2,5.88,3.02c0.1,0.04,0.2,0.09,0.3,0.13c0.37,0.15,0.75,0.28,1.12,0.42c0.93,0.33,1.88,0.64,2.83,0.9
					c2.52,0.69,5.12,1.09,7.73,1.18c2.61-0.09,5.21-0.49,7.73-1.18c0.95-0.26,1.9-0.57,2.83-0.9c0.37-0.13,0.75-0.27,1.12-0.42
					c0.1-0.04,0.2-0.08,0.3-0.13c2.03-0.82,3.99-1.83,5.88-3.02c0.03-0.02,0.06-0.04,0.1-0.06c0.45-0.29,0.89-0.58,1.33-0.89
					c0.06-0.04,0.12-0.08,0.18-0.12c0.43-0.3,0.86-0.62,1.28-0.94c0.06-0.05,0.12-0.09,0.18-0.14c0.14-0.11,0.27-0.22,0.4-0.33h0.02
					c0.11-0.08,0.2-0.18,0.31-0.27c0.18-0.14,0.35-0.28,0.53-0.43c0.04-0.04,0.09-0.07,0.13-0.11c0.36-0.31,0.72-0.63,1.07-0.96
					c0.06-0.06,0.13-0.11,0.19-0.17c0,0,0,0,0,0c0.84-0.79,1.66-1.61,2.45-2.49c0.53-0.59,1.02-1.19,1.5-1.8
					c0.1-0.13,0.2-0.27,0.3-0.4c0.41-0.53,0.8-1.07,1.17-1.62c0.04-0.05,0.08-0.11,0.12-0.16c0.04-0.06,0.07-0.11,0.11-0.17
					c0.27-0.4,0.52-0.8,0.77-1.21c0.62-0.98,1.22-1.96,1.88-2.91c0.8-1.16,1.68-2.26,2.66-3.28c0.93-0.97,1.94-1.88,3-2.7
					c1.07-0.82,2.2-1.56,3.39-2.21c1.19-0.65,2.44-1.21,3.72-1.68c1.3-0.47,2.63-0.83,3.98-1.08c1.38-0.26,2.79-0.41,4.19-0.44
					c0.21-0.01,0.43-0.01,0.64-0.01c0.75,0,1.59,0.05,2.57,0.14c1.03,0.11,2.12,0.04,3.14-0.2c0.02,0.24,0.03,0.48,0.03,0.73
					c0,0.37-0.02,0.73-0.07,1.1c-10.03,2.6-18.69,9.23-23.81,18.57c0.04-0.07,0.08-0.14,0.13-0.22h0.02c-2.36,3.98,0,0-2.36,3.98
					h18.64v66.4c-0.01,0.01-0.01,0.02-0.02,0.03C169.56,194.05,168.03,200.31,168.46,206.22z M197.19,194.57
					c0,1.08,0.12,2.17,0.38,3.23c0.24,0.97,0.6,1.92,1.09,2.79c0.47,0.84,1.06,1.61,1.74,2.27c0.69,0.67,1.47,1.24,2.32,1.69
					c0.89,0.47,1.85,0.81,2.84,1.03c0.24,0.05,0.46,0.11,0.7,0.14c0.33,0.04,0.66,0.07,0.98,0.1c0.65,0.06,1.3,0.09,1.95,0.09
					c0.72-0.01,1.44-0.08,2.15-0.23c0.66-0.14,1.27-0.4,1.9-0.64c0.29-0.11,0.58-0.26,0.88-0.34c-3.74,7.21-10.22,6.31-13.84,5.09
					c-0.85-0.26-1.68-0.61-2.47-1.05c-0.11-0.06-0.18-0.1-0.17-0.1c-2.81-1.61-5.09-4.2-6.15-7.06c0.45,7.33,6.54,13.14,13.98,13.14
					c4.91,0,9.23-2.54,11.73-6.37c0.02-0.05,0.06-0.09,0.1-0.13l-0.02,0.06l-0.01,0.08c-1.1,9.43-9.42,16.89-18.53,16.89
					c-0.08,0-0.17,0-0.25,0c-7.05-0.11-13.24-3.84-16.48-9.57l-0.03-0.05c-2.12-3.67-3.47-7.85-3.83-12.3l-0.02,0.06
					c-0.54,1.86-0.82,3.83-0.82,5.86c0,4.61,1.48,8.88,3.98,12.34c-2.7-1.91-4.92-4.44-6.47-7.37c-0.09-0.17-0.19-0.35-0.27-0.52
					c-0.12-0.25-0.24-0.5-0.35-0.76c-0.03-0.06-0.06-0.12-0.08-0.18c-0.61-1.4-1.07-2.88-1.36-4.41c-0.01-0.03-0.01-0.06-0.02-0.09
					c-0.06-0.33-0.11-0.67-0.16-1.01c-0.01-0.07-0.02-0.14-0.03-0.21c-0.04-0.32-0.07-0.64-0.1-0.96
					c-0.6-7.52,2.76-14.88,6.68-19.75c2.28-2.83,4.92-5.34,7.74-7.62c1.93-1.56,3.87-3,5.82-4.42l9.63-6.96
					c-1.14,1.34-3.78,4.39-4.29,5.03c-8.3,10.3-20.19,24.52-12.66,38.53c1.85,3.45,4.92,6.25,8.55,7.75
					c2.06,0.85,4.28,1.28,6.5,1.28c1,0,1.98-0.09,2.93-0.25l-0.05,0c-8.84-0.4-15.91-7.71-15.91-16.69c0-4.63,0.9-8.63,3.08-12.65
					c5.52-10.17,13.06-18.86,20.44-27.69c4.13-4.95,9.36-10.43,10.52-16.95c1.06-5.97-0.31-12.24-4.11-17.02
					c-4.06-5.1-10.57-8.22-17.1-7.92c-5.76,0.27-12.55,3.18-15.14,8.65c0.62-0.62,1.03-0.93,1.6-1.33c0.65-0.46,1.31-0.91,2-1.31
					c4.56-2.6,11.04-3.38,16.06-1.93c4.79,1.38,9.28,5.04,11.5,9.5c1.53,3.06,1.86,6.4,1.33,9.65c-0.23,1.08-0.58,2.14-1.03,3.14
					c-0.37,0.82-0.81,1.6-1.32,2.35c-0.36,0.53-0.76,1.04-1.19,1.52c-0.83,0.92-1.76,1.79-2.8,2.47c-0.55,0.36-1.14,0.68-1.77,0.91
					c-8.44,3.09-10.66-4.01-10.66-4.01c7.18,1.87,10.55-3.38,10.55-3.38c3.4-4.99,1.84-11.84-3.45-14.8
					c-6.14-3.44-13.96-0.69-19.28,3.09c-3.58,2.54-6.31,5.76-9.22,9c-0.01,0.01-0.02,0.02-0.03,0.03v-11.16
					c0-3.72,2.37-8.49,2.76-9.25c4.21-7.47,12.21-12.51,21.4-12.51c13.8,0,24.85,10.54,26.67,23.98c0.83,6.15-0.57,12.49-3.19,18.07
					c-4.35,9.26-11.74,16.59-18.26,24.32C202.85,182.35,197.19,188.11,197.19,194.57z"/>
			</g>
			<g>
				<path class="st0" d="M128.12,190.84v-0.65c0-1.02-0.82-1.84-1.84-1.84v0.45v5.17l6.73-2.18c0.12,1.27,1,2.84,1.9,3.69
					c0.7,0.66,1.5,1.75,1.72,2.69c-1.83,0.79-4.65,2.01-4.94,2.13c-0.24,0.74-0.37,1.54-0.37,2.36c0,0.82,0.13,1.62,0.37,2.36
					c-1.29-0.2-2.47-0.73-3.46-1.49c0-0.02,0-1.73,0-1.73c0-1.02-0.82-1.84-1.84-1.84v5.62c0,0,0,0.01,0,0.02
					c1.61,1.15,3.55,1.86,5.66,1.94c0.95,0.02,1.71,0.79,1.71,1.74c0.29,0.02,0.53-0.21,0.53-0.5c0-0.5-0.07-0.98-0.21-1.43
					c-0.12-0.45-0.19-0.93-0.19-1.41c0-0.82,0.18-1.61,0.51-2.31c0.29-0.09,0.58-0.17,0.88-0.22c0.43-0.08,0.87-0.12,1.32-0.12
					c0.67,0,1.31,0.09,1.93,0.26c0.4,0.11,0.81,0.18,1.23,0.21c0.21,0.02,0.42,0.03,0.63,0.03c0.77,0,1.52-0.12,2.22-0.35
					c0,0,0.27-0.1,0.33,0.11c0.06,0.2-0.17,0.4-0.17,0.4c-0.48,0.44-1.25,0.78-2.08,0.88c-0.34,0.04-0.68,0.05-1.02,0.04
					c0.74,1.7,1.29,3.14,1.38,3.35c0.74,0.24,1.54,0.37,2.36,0.37c0.82,0,1.62-0.13,2.36-0.37c-0.2,1.29-0.73,2.47-1.49,3.46
					c-0.02,0-1.73,0-1.73,0c-1.02,0-1.84,0.82-1.84,1.84h5.62c0,0,0.01,0,0.02,0c1.15-1.61,1.86-3.55,1.94-5.66
					c0.02-0.95,0.79-1.71,1.74-1.71c0.02-0.29-0.21-0.53-0.5-0.53c-0.5,0-0.98,0.07-1.43,0.21c-0.45,0.12-0.93,0.19-1.41,0.19
					c-0.82,0-1.61-0.18-2.3-0.51c-0.22-0.69-0.34-1.43-0.34-2.2c0-0.67,0.09-1.31,0.26-1.93l0-0.01c0.03-0.1,0.04-0.2,0.05-0.29
					c0.46,0.11,0.93,0.17,1.41,0.17c3.23,0,5.87-2.63,5.87-5.87c0-0.91-0.2-1.78-0.6-2.58l-0.51-1.08c-0.84-1.6-1.23-3.41-1.11-5.22
					c0.11-1.69,0.65-3.31,1.57-4.71c0.01,0,0.01,0,0.02,0c0.06-0.02,0.11-0.05,0.17-0.07c0.38-0.17,0.7-0.35,0.97-0.54
					c0.67-0.56,1.12-1.38,1.22-2.31c0.01-0.1,0.02-0.2,0.02-0.3c0-0.06,0-0.13,0-0.19c-0.01-0.2-0.03-0.4-0.06-0.59
					c-0.14,0.09-0.28,0.17-0.41,0.27c-0.22,0.15-0.43,0.3-0.63,0.46c-0.2,0.16-0.4,0.33-0.6,0.51c-0.19,0.18-0.38,0.36-0.56,0.55
					c-0.18,0.19-0.35,0.38-0.51,0.59c0,0-0.02,0.02-0.02,0.03c-0.05,0.06-0.09,0.11-0.13,0.17l0,0c-0.02,0.02-0.04,0.05-0.06,0.08
					c-0.04,0.05-0.07,0.1-0.11,0.14c-0.05,0.07-0.11,0.15-0.16,0.22c-0.01,0.02-0.03,0.04-0.04,0.06c-1.14,1.64-1.8,3.56-1.94,5.57
					c-0.13,2.05,0.3,4.08,1.25,5.89l0.5,1.05c0.32,0.64,0.47,1.32,0.47,2.03c0,2.53-2.06,4.59-4.59,4.59c-0.05,0-0.11,0-0.16,0
					c-1.23-0.04-2.37-0.65-3.13-1.61c-0.15-0.18-0.28-0.36-0.39-0.52c-0.88-1.24-1.4-2.76-1.39-4.4l0.09,0.11v-0.02
					c0.57,0.64,1.35,1.02,1.8,1.21c0.11,0.04,0.21-0.07,0.16-0.17c-0.37-0.8-0.34-2.17-0.19-2.86c0.14-0.64,0.24-1.02,0.52-1.62
					c0,0-0.04,0.4,0.31,0.94c0.06,0.09,0.21,0.06,0.23-0.05c0.16-0.88,0.43-1.78,0.86-2.55c0.19-0.33,0.26-0.46,0.26-0.49
					c0.15-0.26,0.3-0.53,0.46-0.78c0.18-0.26,0.34-0.54,0.48-0.82l0,0c0.01-0.02,0.02-0.04,0.03-0.06c0.02-0.03,0.03-0.07,0.05-0.1
					c0.01-0.03,0.03-0.06,0.04-0.09c0.02-0.03,0.03-0.07,0.05-0.1c0.01-0.03,0.03-0.06,0.04-0.09c0.01-0.03,0.03-0.07,0.04-0.1
					c0.01-0.03,0.02-0.06,0.04-0.09c0.01-0.03,0.03-0.07,0.04-0.1c0.01-0.03,0.02-0.06,0.03-0.09c0.01-0.04,0.02-0.07,0.04-0.11
					c0.01-0.03,0.02-0.06,0.03-0.1c0.01-0.04,0.02-0.07,0.03-0.11c0.01-0.03,0.02-0.06,0.03-0.1c0.01-0.04,0.02-0.07,0.03-0.11
					c0.01-0.03,0.02-0.06,0.03-0.1c0.01-0.04,0.02-0.07,0.03-0.11c0.01-0.03,0.02-0.06,0.02-0.1c0.01-0.04,0.02-0.08,0.03-0.11
					c0.01-0.03,0.01-0.07,0.02-0.1c0.01-0.04,0.02-0.08,0.02-0.12c0.01-0.03,0.01-0.06,0.02-0.1c0.01-0.04,0.01-0.08,0.02-0.12
					c0.01-0.03,0.01-0.06,0.02-0.1c0.01-0.04,0.01-0.08,0.02-0.12c0-0.03,0.01-0.06,0.01-0.1c0-0.04,0.01-0.08,0.01-0.13
					c0-0.03,0.01-0.06,0.01-0.09c0-0.04,0.01-0.09,0.01-0.13c0-0.03,0-0.06,0.01-0.09c0-0.05,0-0.1,0.01-0.15c0-0.02,0-0.05,0-0.07
					c0-0.07,0-0.15,0-0.22c0-2.4-1.12-4.55-2.86-5.94c0.14,0.03,0.28,0.06,0.42,0.1c0.12,0.03,0.2-0.13,0.1-0.21
					c-1.5-1.19-3.46-1.82-5.52-1.6c-0.14,0.01-0.27,0.03-0.41,0.06c-0.14,0.02-0.25,0.12-0.29,0.25l-0.25,0.8
					c-0.12,0.01-0.21,0.03-0.21,0.03c-0.59,0.15-1.21,0.47-1.47,1l-2.1,0.87c-0.18,0.07-0.3,0.24-0.28,0.44
					c0.01,0.11,0.05,0.21,0.12,0.28c0.03,0.32,0.25,1.61,0.78,1.68c0,0,0.43-0.13,0.66-0.2l0,0c0,0,0.01,0,0.01,0
					c0.04-0.01,0.07-0.02,0.09-0.03l0,0c0.59-0.16,1.37-0.28,1.58,0.09c0,0,0.45,1-0.14,1.23c0,0-0.2,0.05-0.83,0.11l-0.52,0.04
					c-0.1,0.01-0.2,0.01-0.31,0.02c0,0-0.33,0.98,0.29,1.27c0.47-0.15,0.97-0.23,1.5-0.23c0.11,0,0.53,0,0.64-0.01
					c0.11-0.01,0.21-0.02,0.32-0.04c0.64-0.08,1.47-0.26,2.27-0.65c0,0-0.33,0.61-1.63,1.1c-0.01,0.01-0.53,0.18-0.93,0.28
					c-0.16,0.04-0.31,0.09-0.46,0.16c-1,0.43-1.89,1.08-2.59,1.9c-0.37-0.18-6.45-3.04-6.45-3.04l0.1-0.07v-1.19
					c0-0.77-0.47-1.43-1.15-1.7c-0.2-0.11-0.44-0.18-0.69-0.18v0.04v4.34l5.4,3.9l2.13-0.57c0,0,0.3-0.12,0.43,0.16
					c0.13,0.27-0.13,0.42-0.13,0.42L128.12,190.84z"/>
				<path class="st0" d="M100.55,208.21c-0.74,0.24-1.54,0.37-2.36,0.37c-0.82,0-1.62-0.13-2.36-0.37c0.2,1.29,0.73,2.47,1.49,3.46
					c0.02,0,1.73,0,1.73,0c1.02,0,1.84,0.82,1.84,1.84h-5.62c0,0-0.01,0-0.02,0c-1.15-1.61-1.86-3.55-1.94-5.66
					c-0.02-0.95-0.79-1.71-1.74-1.71c-0.02-0.29,0.21-0.53,0.5-0.53c0.5,0,0.98,0.07,1.43,0.21c0.45,0.12,0.93,0.19,1.41,0.19
					c0.82,0,1.61-0.18,2.3-0.51c0.22-0.69,0.34-1.43,0.34-2.2c0-0.67-0.09-1.31-0.26-1.93l0-0.01c-0.03-0.1-0.04-0.2-0.05-0.29
					c-0.46,0.11-0.93,0.17-1.41,0.17c-3.23,0-5.86-2.63-5.86-5.86c0-0.91,0.2-1.78,0.6-2.58l0.51-1.08c0.84-1.6,1.23-3.41,1.11-5.22
					c-0.11-1.69-0.65-3.31-1.57-4.71c-0.01,0-0.01,0-0.02,0c-0.06-0.02-0.11-0.05-0.17-0.07c-0.38-0.17-0.7-0.35-0.97-0.54
					c-0.67-0.56-1.12-1.38-1.22-2.31c-0.01-0.1-0.02-0.2-0.02-0.3c0-0.06,0-0.13,0-0.19c0.01-0.2,0.03-0.4,0.06-0.59
					c0.14,0.09,0.28,0.17,0.41,0.27c0.22,0.15,0.43,0.3,0.63,0.46c0.2,0.16,0.4,0.33,0.6,0.51c0.19,0.18,0.38,0.36,0.56,0.55
					c0.18,0.19,0.35,0.38,0.51,0.58c0,0,0.02,0.02,0.02,0.03c0.05,0.06,0.09,0.11,0.13,0.17l0,0c0.02,0.02,0.04,0.05,0.06,0.08
					c0.04,0.05,0.07,0.1,0.11,0.14c0.05,0.07,0.11,0.15,0.16,0.22c0.01,0.02,0.03,0.04,0.04,0.06c1.14,1.64,1.8,3.55,1.94,5.57
					c0.13,2.05-0.3,4.08-1.25,5.89l-0.5,1.05c-0.32,0.64-0.47,1.32-0.47,2.03c0,2.53,2.06,4.59,4.59,4.59c0.05,0,0.11,0,0.16,0
					c1.23-0.04,2.37-0.65,3.13-1.61c0.15-0.18,0.28-0.36,0.39-0.52c0.88-1.24,1.4-2.76,1.39-4.4l-0.09,0.11v-0.02
					c-0.57,0.64-1.35,1.02-1.8,1.21c-0.11,0.04-0.21-0.07-0.16-0.17c0.37-0.8,0.34-2.17,0.19-2.86c-0.14-0.64-0.24-1.02-0.52-1.62
					c0,0,0.04,0.4-0.31,0.94c-0.06,0.09-0.21,0.06-0.23-0.05c-0.16-0.88-0.43-1.78-0.86-2.55c-0.19-0.33-0.26-0.46-0.26-0.49
					c-0.15-0.26-0.3-0.53-0.46-0.78c-0.18-0.26-0.34-0.54-0.48-0.82l0,0c-0.01-0.02-0.02-0.04-0.03-0.06
					c-0.02-0.03-0.03-0.07-0.05-0.1c-0.01-0.03-0.03-0.06-0.04-0.09c-0.02-0.03-0.03-0.07-0.05-0.1c-0.01-0.03-0.03-0.06-0.04-0.09
					c-0.01-0.03-0.03-0.07-0.04-0.1c-0.01-0.03-0.02-0.06-0.04-0.09c-0.01-0.03-0.03-0.07-0.04-0.1c-0.01-0.03-0.02-0.06-0.03-0.09
					c-0.01-0.04-0.02-0.07-0.04-0.11c-0.01-0.03-0.02-0.06-0.03-0.1c-0.01-0.04-0.02-0.07-0.03-0.11c-0.01-0.03-0.02-0.06-0.03-0.1
					c-0.01-0.04-0.02-0.07-0.03-0.11c-0.01-0.03-0.02-0.06-0.03-0.1c-0.01-0.04-0.02-0.07-0.03-0.11c-0.01-0.03-0.02-0.06-0.02-0.1
					c-0.01-0.04-0.02-0.08-0.03-0.11c-0.01-0.03-0.01-0.07-0.02-0.1c-0.01-0.04-0.02-0.08-0.02-0.12c-0.01-0.03-0.01-0.06-0.02-0.1
					c-0.01-0.04-0.01-0.08-0.02-0.12c-0.01-0.03-0.01-0.06-0.02-0.1c-0.01-0.04-0.01-0.08-0.02-0.12c0-0.03-0.01-0.06-0.01-0.1
					c0-0.04-0.01-0.08-0.01-0.13c0-0.03-0.01-0.06-0.01-0.09c0-0.04-0.01-0.09-0.01-0.13c0-0.03,0-0.06-0.01-0.09
					c0-0.05,0-0.1-0.01-0.15c0-0.02,0-0.05,0-0.07c0-0.07,0-0.15,0-0.22c0-2.4,1.12-4.55,2.86-5.94c-0.14,0.03-0.28,0.06-0.42,0.1
					c-0.12,0.03-0.2-0.13-0.1-0.21c1.5-1.19,3.46-1.82,5.52-1.6c0.14,0.01,0.27,0.03,0.41,0.06c0.14,0.02,0.25,0.12,0.29,0.25
					l0.25,0.8c0.12,0.01,0.21,0.03,0.21,0.03c0.59,0.15,1.21,0.47,1.47,1l2.1,0.87c0.18,0.07,0.3,0.24,0.28,0.44
					c-0.01,0.11-0.05,0.21-0.12,0.28c-0.03,0.32-0.25,1.61-0.78,1.68c0,0-0.43-0.13-0.66-0.2l0,0c0,0-0.01,0-0.01,0
					c-0.04-0.01-0.07-0.02-0.09-0.03l0,0c-0.59-0.16-1.37-0.28-1.58,0.09c0,0-0.45,1,0.14,1.23c0,0,0.2,0.05,0.83,0.11l0.52,0.04
					c0.1,0.01,0.2,0.01,0.31,0.02c0,0,0.33,0.98-0.29,1.27c-0.47-0.15-0.97-0.23-1.5-0.23c-0.11,0-0.53,0-0.64-0.01
					c-0.11-0.01-0.21-0.02-0.32-0.04c-0.64-0.08-1.46-0.26-2.27-0.65c0,0,0.33,0.61,1.63,1.1c0.01,0.01,0.53,0.18,0.93,0.28
					c0.16,0.04,0.31,0.09,0.46,0.16c1,0.43,1.89,1.08,2.59,1.9c0.37-0.18,6.45-3.04,6.45-3.04l-0.1-0.07v-1.19
					c0-0.77,0.47-1.43,1.15-1.7c0.2-0.11,0.44-0.18,0.69-0.18v0.04v4.34l-5.36,3.86l-2.3-0.62c0,0-0.3-0.12-0.43,0.16
					c-0.13,0.27,0.13,0.42,0.13,0.42l6.12,3.1v-0.65c0-1.02,0.82-1.84,1.84-1.84v0.45v5.17l-6.73-2.18c-0.12,1.27-1,2.84-1.9,3.69
					c-0.7,0.66-1.5,1.75-1.72,2.69c1.83,0.79,4.65,2.01,4.94,2.13c0.24,0.74,0.37,1.54,0.37,2.36c0,0.82-0.13,1.62-0.37,2.36
					c1.29-0.2,2.47-0.73,3.46-1.49c0-0.02,0-1.73,0-1.73c0-1.02,0.82-1.84,1.84-1.84v5.62c0,0,0,0.01,0,0.02
					c-1.61,1.15-3.55,1.86-5.66,1.94c-0.95,0.02-1.71,0.79-1.71,1.74c-0.29,0.02-0.53-0.21-0.53-0.5c0-0.5,0.07-0.98,0.21-1.43
					c0.12-0.45,0.19-0.93,0.19-1.41c0-0.82-0.18-1.61-0.51-2.3c-0.29-0.09-0.58-0.17-0.88-0.22c-0.43-0.08-0.87-0.12-1.32-0.12
					c-0.28,0-0.55,0.02-0.82,0.06l0.43-2.73c0,0,0.05-0.28-0.21-0.37c-0.26-0.08-0.38,0.19-0.38,0.19L100.55,208.21z"/>
			</g>
			<path class="st0" d="M139.83,144.62c-2.34-4.42-6.91-7.47-12.22-7.66c-1.96-1.06-4.2-1.66-6.59-1.66s-4.63,0.6-6.59,1.66
				c-5.3,0.18-9.88,3.24-12.22,7.66c-3.56,1.87-5.99,5.61-5.99,9.91c0,3.38,1.5,6.41,3.87,8.47c1.78,4.49,5.82,7.83,10.72,8.61
				c4.3,0.69,7.6,4.43,7.72,8.89l0.03,24.31c-0.07,1.08-0.68,5.99-6.5,6.77c-0.53,0-1.44,0-1.44,0c-1.07,0-1.93,0.86-1.93,1.93h5.9
				h2.69h1.29h4.9v0h3.98h5.9c0-1.07-0.86-1.93-1.93-1.93c0,0-0.9,0-1.44,0c-6.37-0.86-6.51-6.42-6.51-6.78l0.01-24.31
				c0.08-4.3,3.11-7.87,7.15-8.78l0.36-0.08c5.01-0.71,9.15-4.08,10.96-8.64c2.37-2.05,3.87-5.08,3.87-8.47
				C145.83,150.23,143.39,146.49,139.83,144.62z M139.47,160.13l-0.7,0.61l-0.34,0.86c-1.17,2.96-3.61,5.11-6.55,5.96l0,0.01
				c0,0-2.42,0.55-3.08,0.94l-0.06,0.04c-0.18,0.18-0.35,0.38-0.53,0.55c-0.03,0.02-0.05,0.04-0.08,0.07
				c-0.17,0.15-0.34,0.29-0.51,0.43c-0.21,0.16-0.42,0.31-0.63,0.46c-1.79,1.21-3.86,1.83-5.95,1.83c-2.08,0-4.15-0.62-5.94-1.83
				c-0.21-0.14-0.42-0.3-0.63-0.46c-0.18-0.14-0.35-0.28-0.52-0.43c-0.02-0.02-0.05-0.04-0.07-0.06c-0.18-0.16-0.35-0.36-0.52-0.53
				l-0.08-0.05c-0.67-0.39-3.08-0.94-3.08-0.94l0-0.01c-2.94-0.86-5.37-3-6.54-5.96l-0.34-0.86l-0.7-0.61
				c-1.63-1.41-2.56-3.45-2.56-5.6c0-2.76,1.52-5.27,3.96-6.55l1.04-0.55l0.55-1.04c1.77-3.35,5.22-5.51,8.99-5.64l0.89-0.03
				l0.78-0.42c1.48-0.8,3.09-1.2,4.78-1.2c1.69,0,3.3,0.4,4.78,1.2l0.78,0.42l0.89,0.03c3.78,0.13,7.22,2.29,8.99,5.64l0.55,1.04
				l1.04,0.55c2.45,1.29,3.96,3.8,3.96,6.55C142.03,156.68,141.1,158.72,139.47,160.13z"/>
		</g>
	</g>
	<path class="st0" d="M144.81,130.19c-2.71,1.53-5.49,2.68-8.33,3.5h24.65v53.47c0,3.1-0.36,6.2-1.06,9.2
		c-0.8,3.41-2.05,6.7-3.71,9.78c-0.19,0.36-0.39,0.71-0.59,1.06c-7.15,12.37-20.46,20.05-34.73,20.05s-27.57-7.68-34.73-20.05
		c-0.2-0.35-0.4-0.7-0.59-1.06c-1.66-3.09-2.91-6.38-3.71-9.78c-0.7-3-1.06-6.09-1.06-9.2v-53.47h25.09
		c-3.68-1.03-6.61-2.43-8.53-3.5H77.46v56.97c0,3.44,0.4,6.79,1.15,10c0.88,3.76,2.25,7.33,4.04,10.64
		c0.21,0.39,0.42,0.77,0.64,1.15c7.54,13.03,21.62,21.79,37.75,21.79s30.22-8.77,37.75-21.79c0.22-0.38,0.43-0.77,0.64-1.15
		c1.79-3.31,3.15-6.89,4.04-10.64c0.75-3.21,1.15-6.56,1.15-10v-56.97H144.81z"/>
	<polygon class="st0" points="171.34,131.06 170.46,130.19 168.78,131.87 167.09,130.19 166.22,131.06 167.9,132.75 166.23,134.42 
		167.1,135.3 168.78,133.62 170.46,135.3 171.34,134.42 169.66,132.74 	"/>
	<polygon class="st0" points="75.64,131.06 74.76,130.19 73.08,131.87 71.4,130.19 70.52,131.06 72.2,132.75 70.53,134.42 
		71.4,135.3 73.08,133.62 74.76,135.3 75.64,134.42 73.96,132.74 	"/>
	<polygon class="st0" points="171.34,172.03 170.46,171.16 168.78,172.84 167.09,171.16 166.22,172.03 167.9,173.71 166.23,175.39 
		167.1,176.27 168.78,174.59 170.46,176.27 171.34,175.39 169.66,173.71 	"/>
	<polygon class="st0" points="75.64,172.03 74.76,171.16 73.08,172.84 71.4,171.16 70.52,172.03 72.2,173.71 70.53,175.39 
		71.4,176.27 73.08,174.59 74.76,176.27 75.64,175.39 73.96,173.71 	"/>
	<polygon class="st0" points="85.21,214.61 84.33,213.74 82.65,215.42 80.96,213.74 80.09,214.61 81.77,216.29 80.1,217.97 
		80.97,218.85 82.65,217.17 84.33,218.85 85.21,217.97 83.53,216.29 	"/>
	<polygon class="st0" points="161.98,214.61 161.1,213.74 159.42,215.42 157.73,213.74 156.86,214.61 158.54,216.29 156.86,217.97 
		157.74,218.85 159.42,217.17 161.1,218.85 161.98,217.97 160.29,216.29 	"/>
	<polygon class="st0" points="123.53,233.23 122.66,232.36 120.98,234.04 119.29,232.36 118.41,233.23 120.1,234.92 118.42,236.59 
		119.3,237.47 120.98,235.79 122.66,237.47 123.53,236.59 121.85,234.91 	"/>
</g>
</svg>
